<svg width="816" height="232" viewBox="0 0 816 232" fill="none" xmlns="http://www.w3.org/2000/svg">
<g clip-path="url(#clip0_6955_13236)">
<path fill-rule="evenodd" clip-rule="evenodd" d="M126.906 0C124.595 11.1371 119.296 32.7975 116.204 45.1749C93.4383 59.0551 64.4854 88.9178 48.64 108.83C30.6816 131.397 -6.38449 160.54 0.947459 177.348C9.36151 196.636 22.4429 206.912 41.1817 215.682C47.8075 191.433 94.333 176.074 108.134 166.296C111.255 164.085 113.575 162.053 114.97 158.317C116.366 154.58 106.808 143.379 110.464 134.027C114.438 123.86 127.244 111.628 140.492 111.628C129.894 114.577 120.179 126.954 118.854 135.353C117.348 144.898 131.766 156.001 126.16 165.342C124.917 167.335 122.319 170.352 119.616 172.497C102.041 186.448 57.9135 200.776 54.7702 217.145C62.1543 224.193 86.9156 235.87 94.8579 230.732C127.976 209.309 227.045 162.76 163.014 111.628C187.743 114.722 198.293 135.034 199.225 157.013C219.49 143.874 225.452 123.336 217.772 105.874C207.079 81.561 189.49 59.3205 163.014 45.1749C159.923 27.0509 147.558 8.92688 126.906 0ZM23.5174 157.661C25.0228 157.29 26.5116 168.181 24.3521 170.172C22.4696 171.908 15.2005 172.31 13.8023 170.94C12.3943 169.56 20.6824 158.359 23.5174 157.661ZM97.6968 85.9555C101.409 84.5961 105.678 89.9087 106.489 93.8003C107.427 98.296 102.853 103.886 101.19 105.736C99.9978 107.062 91.9166 118.997 76.9417 111.628C72.9279 109.653 88.3838 89.3656 97.6968 85.9555Z" fill="#0E823E"/>
<path d="M78.6686 12.0212C85.4783 14.9926 102.8 25.6888 107.627 39.24C96.5561 46.4678 84.5014 56.7517 73.2366 67.6322C75.7327 48.6855 77.7227 22.9769 78.6686 12.0212Z" fill="#0E823E"/>
<path d="M303.493 34C331.2 34 341.113 44.2947 341.113 79.5C341.113 114.705 331.2 125 303.493 125C275.786 125 266 114.705 266 79.5C266 44.2947 275.786 34 303.493 34ZM303.493 49.6327C290.275 49.6327 286.335 56.2416 286.335 79.5C286.335 102.758 290.275 109.367 303.493 109.367C316.711 109.367 320.651 102.758 320.651 79.5C320.651 56.2416 316.711 49.6327 303.493 49.6327Z" fill="#171717"/>
<path d="M355.804 123.348V35.6522C366.353 34.6355 373.343 34.5084 389.103 34.5084C413.378 34.5084 421.131 40.736 421.131 63.1047C421.131 85.7277 413.378 91.8282 391.645 91.8282C385.926 91.8282 380.207 91.4469 375.123 90.8115V123.348H355.804ZM375.123 76.9581H388.722C398.635 76.831 401.686 74.0349 401.686 63.1047C401.686 52.1746 398.635 49.3785 388.722 49.3785L375.123 49.5056V76.9581Z" fill="#171717"/>
<path d="M492.21 108.223L493.099 122.458C481.153 123.729 466.028 123.729 452.429 123.729C440.736 123.729 433.238 116.866 433.111 106.063V52.9371C433.238 42.1341 440.736 35.2709 452.429 35.2709C466.028 35.2709 481.153 35.2709 493.099 36.5419L492.21 50.9036H458.53C454.336 50.9036 452.556 52.8101 452.556 57.3855V70.7304H487.507V84.7109H452.556V101.615C452.556 106.317 454.336 108.223 458.53 108.223H492.21Z" fill="#171717"/>
<path d="M581.071 35.6522V116.358C581.071 120.933 578.783 123.348 574.208 123.348H562.134C558.067 123.348 556.287 121.441 554.381 117.628L531.377 70.8575C529.598 67.0447 527.056 61.5796 526.039 57.2584H524.641C525.276 61.8338 525.531 66.6634 525.531 71.2388V123.348H507.102V42.6425C507.102 38.067 509.517 35.6522 514.092 35.6522H525.912C529.979 35.6522 531.758 37.5587 533.665 41.3715L555.906 86.7444C557.813 90.5573 560.227 95.8953 562.261 100.852H563.532C563.151 95.8953 562.769 91.0656 562.769 86.1089V35.6522H581.071Z" fill="#171717"/>
<path d="M669.869 35.6522L646.103 118.01C645.34 121.187 642.671 123.348 639.24 123.348H621.573C618.142 123.348 615.473 121.187 614.71 118.01L590.816 35.6522H610.77L626.657 98.9455C627.42 102.123 628.182 105.554 628.818 108.732H631.995C632.504 105.554 633.393 102.123 634.156 98.9455L649.916 35.6522H669.869Z" fill="#171717"/>
<path d="M720.586 100.344H690.464L684.11 123.348H664.283L689.575 40.736C690.337 37.5587 693.133 35.6522 696.311 35.6522H714.612C717.917 35.6522 720.586 37.5587 721.348 40.736L746.64 123.348H726.941L720.586 100.344ZM716.392 85.3464L709.02 58.5293C708.385 55.8603 707.622 52.9371 707.241 50.2682H703.809C703.174 52.9371 702.538 55.8603 701.903 58.5293L694.531 85.3464H716.392Z" fill="#171717"/>
<path d="M788.123 90.176L770.457 83.9483C757.112 79.1187 752.282 71.2388 752.282 58.2751C752.282 38.1941 761.56 34 784.183 34C792.825 34 803.247 34.6355 813.033 37.4316L811.762 50.6494C804.391 50.3953 793.588 50.2682 784.31 50.2682C774.905 50.2682 771.6 50.7765 771.6 58.2751C771.6 64.3757 774.142 66.0279 780.751 68.1885L797.401 73.9078C811.381 78.8645 815.957 86.8715 815.957 99.7081C815.957 119.662 807.314 125 783.42 125C777.828 125 766.771 124.619 753.299 121.696L754.443 107.715C770.711 108.096 777.828 108.351 783.42 108.351C793.588 108.351 796.384 106.953 796.384 99.8352C796.384 93.6075 793.969 92.0824 788.123 90.176Z" fill="#171717"/>
<path d="M273.44 146.6V160.568C273.44 163.52 273.44 165.608 272.936 168.056C277.4 163.664 282.08 161.216 286.76 161.216C295.616 161.216 299.432 166.328 299.432 179.504C299.432 191.888 295.76 197.864 284.456 197.864C279.56 197.864 273.728 197 268.904 195.488V146.6H273.44ZM273.44 171.152V192.536C277.328 193.616 280.928 193.976 284.384 193.904C291.8 193.904 294.68 190.16 294.68 179.504C294.68 168.992 292.52 165.248 285.464 165.248C281.432 165.248 278.12 167.48 273.44 171.152Z" fill="#171717"/>
<path d="M339.286 162.152L324.598 199.448C322.222 205.496 318.622 211.04 310.774 211.904L310.198 208.952C315.958 207.008 318.55 203.552 320.35 198.944L321.214 197H320.062C319.198 197 318.55 196.568 318.262 195.776L305.014 162.152H309.91L320.206 189.368C320.71 190.664 321.286 192.032 321.646 193.4H322.654L324.166 189.296L334.39 162.152H339.286Z" fill="#171717"/>
<path d="M397.074 168.344V197H390.378L389.586 192.104C386.922 194.624 381.882 197.936 375.042 197.936C364.026 197.936 359.49 189.872 359.49 171.944C359.49 152.072 365.178 146.384 381.234 146.384C386.202 146.384 391.098 146.816 395.49 148.04L394.77 154.736C390.09 154.448 385.05 154.304 381.666 154.304C372.234 154.304 368.922 156.248 368.922 172.448C368.922 185.768 371.154 190.16 377.85 190.16C381.954 190.16 385.266 188.576 388.29 186.704V168.344H397.074Z" fill="#171717"/>
<path d="M430.105 160.712L429.169 168.92H426.649C423.265 168.92 420.025 170.072 414.985 172.088V197H406.201V161.72H413.041L413.833 166.904C418.657 162.944 423.769 160.712 428.377 160.712H430.105Z" fill="#171717"/>
<path d="M457.485 183.032H443.085C443.805 189.44 446.469 190.736 452.517 190.736C455.901 190.736 460.941 190.376 465.189 189.872L465.981 195.488C462.237 197.288 455.901 197.864 451.437 197.864C438.621 197.864 433.797 192.68 433.797 179.288C433.797 165.32 438.909 160.712 450.861 160.712C462.309 160.712 466.917 164.96 466.917 172.952C466.917 179.288 464.037 183.032 457.485 183.032ZM442.941 176.912H455.037C457.845 176.912 458.205 174.68 458.205 172.808C458.205 169.064 456.621 167.624 451.221 167.624C445.173 167.624 443.157 169.496 442.941 176.912Z" fill="#171717"/>
<path d="M496.93 183.032H482.53C483.25 189.44 485.914 190.736 491.962 190.736C495.346 190.736 500.386 190.376 504.634 189.872L505.426 195.488C501.682 197.288 495.346 197.864 490.882 197.864C478.066 197.864 473.242 192.68 473.242 179.288C473.242 165.32 478.354 160.712 490.306 160.712C501.754 160.712 506.362 164.96 506.362 172.952C506.362 179.288 503.482 183.032 496.93 183.032ZM482.386 176.912H494.482C497.29 176.912 497.65 174.68 497.65 172.808C497.65 169.064 496.066 167.624 490.666 167.624C484.618 167.624 482.602 169.496 482.386 176.912Z" fill="#171717"/>
<path d="M521.615 161.72L522.191 166.904C527.231 163.088 532.343 160.712 537.455 160.712C543.719 160.712 547.175 164.168 547.175 170.504V197H538.391V173.168C538.391 169.208 537.455 168.128 534.647 168.128C531.119 168.128 527.879 169.712 523.055 172.448V197H514.271V161.72H521.615Z" fill="#171717"/>
<path d="M565.38 146.6V158.48C565.38 161.504 565.236 164.096 564.516 166.688C568.188 162.8 572.796 160.712 577.476 160.712C586.26 160.712 590.364 165.968 590.364 179.144C590.364 190.448 586.98 197.864 573.804 197.864C568.836 197.864 561.132 197 556.596 195.2V146.6H565.38ZM565.38 172.016V190.016C568.116 190.664 571.212 190.952 573.588 190.88C579.204 190.808 581.292 188.072 581.364 179.144C581.292 170.792 580.14 168.056 574.164 168.056C570.996 168.056 568.548 169.712 565.38 172.016Z" fill="#171717"/>
<path d="M614.488 160.712C627.16 160.712 631.84 165.824 631.84 179.36C631.84 192.896 627.16 197.936 614.488 197.936C601.744 197.936 596.992 192.896 596.992 179.36C596.992 165.824 601.744 160.712 614.488 160.712ZM614.488 167.696C608.008 167.696 606.136 170.216 606.136 179.36C606.136 188.432 608.008 190.952 614.488 190.952C620.824 190.952 622.768 188.432 622.768 179.36C622.768 170.216 620.824 167.696 614.488 167.696Z" fill="#171717"/>
<path d="M647.404 161.72L647.98 166.904C653.02 163.088 658.132 160.712 663.244 160.712C669.508 160.712 672.964 164.168 672.964 170.504V197H664.18V173.168C664.18 169.208 663.244 168.128 660.436 168.128C656.908 168.128 653.668 169.712 648.844 172.448V197H640.06V161.72H647.404Z" fill="#171717"/>
<path d="M704.633 183.032H690.233C690.953 189.44 693.617 190.736 699.665 190.736C703.049 190.736 708.089 190.376 712.337 189.872L713.129 195.488C709.385 197.288 703.049 197.864 698.585 197.864C685.769 197.864 680.945 192.68 680.945 179.288C680.945 165.32 686.057 160.712 698.009 160.712C709.457 160.712 714.065 164.96 714.065 172.952C714.065 179.288 711.185 183.032 704.633 183.032ZM690.089 176.912H702.185C704.993 176.912 705.353 174.68 705.353 172.808C705.353 169.064 703.769 167.624 698.369 167.624C692.321 167.624 690.305 169.496 690.089 176.912Z" fill="#171717"/>
</g>
<defs>
<clipPath id="clip0_6955_13236">
<rect width="816" height="232" fill="white"/>
</clipPath>
</defs>
</svg>
